SplineFontDB: 3.2
FontName: FontBrick
FullName: FontBrick
FamilyName: FontBrick
Weight: Regular
Copyright: Copyright (c) 2024, vulastic
UComments: "2024-1-2: Created with FontForge (http://fontforge.org)"
Version: 001.000
ItalicAngle: 0
UnderlinePosition: -100
UnderlineWidth: 50
Ascent: 800
Descent: 200
InvalidEm: 0
LayerCount: 2
Layer: 0 0 "Back" 1
Layer: 1 0 "Fore" 0
XUID: [1021 711 660813647 6996]
StyleMap: 0x0000
FSType: 0
OS2Version: 0
OS2_WeightWidthSlopeOnly: 0
OS2_UseTypoMetrics: 1
CreationTime: 1704177760
ModificationTime: 1704183718
OS2TypoAscent: 0
OS2TypoAOffset: 1
OS2TypoDescent: 0
OS2TypoDOffset: 1
OS2TypoLinegap: 90
OS2WinAscent: 0
OS2WinAOffset: 1
OS2WinDescent: 0
OS2WinDOffset: 1
HheadAscent: 0
HheadAOffset: 1
HheadDescent: 0
HheadDOffset: 1
MarkAttachClasses: 1
DEI: 91125
Encoding: ISO8859-1
UnicodeInterp: none
NameList: AGL For New Fonts
DisplaySize: -48
AntiAlias: 1
FitToEm: 0
WinInfo: 0 31 11
BeginPrivate: 0
EndPrivate
BeginChars: 256 95

StartChar: exclam
Encoding: 33 33 0
Width: 500
Flags: HW
LayerCount: 2
Fore
SplineSet
0 112.5 m 1
 0 800 l 1
 250 800 l 1
 250 112.5 l 1
 0 112.5 l 1
0 -200 m 1
 0 -12.5 l 1
 250 -12.5 l 1
 250 -200 l 1
 0 -200 l 1
EndSplineSet
Validated: 524289
EndChar

StartChar: quotedbl
Encoding: 34 34 1
Width: 562
Flags: HW
LayerCount: 2
Fore
SplineSet
0 675 m 1
 0 800 l 1
 125 800 l 1
 125 675 l 1
 0 675 l 1
187.5 675 m 1
 187.5 800 l 1
 312.5 800 l 1
 312.5 675 l 1
 187.5 675 l 1
EndSplineSet
Validated: 524289
EndChar

StartChar: numbersign
Encoding: 35 35 2
Width: 1000
Flags: HW
LayerCount: 2
Fore
SplineSet
125 -75 m 1
 125 675 l 1
 312.5 675 l 1
 312.5 -75 l 1
 125 -75 l 1
437.5 -75 m 1
 437.5 675 l 1
 625 675 l 1
 625 -75 l 1
 437.5 -75 l 1
0 362.5 m 1
 0 550 l 1
 750 550 l 1
 750 362.5 l 1
 0 362.5 l 1
0 50 m 1
 0 237.5 l 1
 750 237.5 l 1
 750 50 l 1
 0 50 l 1
EndSplineSet
Validated: 524293
EndChar

StartChar: dollar
Encoding: 36 36 3
Width: 1000
Flags: HW
LayerCount: 2
Fore
SplineSet
296.875 -200 m 1
 296.875 800 l 1
 453.125 800 l 1
 453.125 -200 l 1
 296.875 -200 l 1
0 487.5 m 1
 0 675 l 1
 750 675 l 1
 750 487.5 l 1
 0 487.5 l 1
562.5 -75 m 1
 562.5 362.5 l 1
 750 362.5 l 1
 750 -75 l 1
 562.5 -75 l 1
0 -75 m 1
 0 112.5 l 1
 750 112.5 l 1
 750 -75 l 1
 0 -75 l 1
0 237.5 m 1
 0 362.5 l 1
 750 362.5 l 1
 750 237.5 l 1
 0 237.5 l 1
0 237.5 m 1
 0 675 l 1
 187.5 675 l 1
 187.5 237.5 l 1
 0 237.5 l 1
EndSplineSet
Validated: 524293
EndChar

StartChar: percent
Encoding: 37 37 4
Width: 1000
Flags: HW
LayerCount: 2
Fore
SplineSet
562.5 487.5 m 1
 562.5 675 l 1
 750 675 l 1
 750 487.5 l 1
 562.5 487.5 l 1
0 -75 m 1
 0 112.5 l 1
 187.5 112.5 l 1
 187.5 -75 l 1
 0 -75 l 1
187.5 112.5 m 1
 187.5 300 l 1
 375 300 l 1
 375 112.5 l 1
 187.5 112.5 l 1
375 300 m 1
 375 487.5 l 1
 562.5 487.5 l 1
 562.5 300 l 1
 375 300 l 1
0 487.5 m 1
 0 675 l 1
 187.5 675 l 1
 187.5 487.5 l 1
 0 487.5 l 1
562.5 -75 m 1
 562.5 112.5 l 1
 750 112.5 l 1
 750 -75 l 1
 562.5 -75 l 1
EndSplineSet
Validated: 524293
EndChar

StartChar: ampersand
Encoding: 38 38 5
Width: 1000
Flags: HW
LayerCount: 2
Fore
SplineSet
0 268.75 m 1
 0 737.5 l 1
 187.5 737.5 l 1
 187.5 268.75 l 1
 0 268.75 l 1
0 550 m 1
 0 737.5 l 1
 500 737.5 l 1
 500 550 l 1
 0 550 l 1
375 268.75 m 1
 375 737.5 l 1
 562.5 737.5 l 1
 562.5 268.75 l 1
 375 268.75 l 1
62.5 -106.25 m 1
 62.5 425 l 1
 250 425 l 1
 250 -106.25 l 1
 62.5 -106.25 l 1
0 268.75 m 1
 0 425 l 1
 625 425 l 1
 625 268.75 l 1
 0 268.75 l 1
500 -168.75 m 1
 500 456.25 l 1
 687.5 456.25 l 1
 687.5 -168.75 l 1
 500 -168.75 l 1
62.5 -106.25 m 1
 62.5 81.25 l 1
 750 81.25 l 1
 750 -106.25 l 1
 62.5 -106.25 l 1
EndSplineSet
Validated: 524293
EndChar

StartChar: quotesingle
Encoding: 39 39 6
Width: 375
Flags: HW
LayerCount: 2
Fore
SplineSet
0 675 m 1
 0 800 l 1
 125 800 l 1
 125 675 l 1
 0 675 l 1
EndSplineSet
Validated: 1
EndChar

StartChar: parenleft
Encoding: 40 40 7
Width: 625
Flags: HW
LayerCount: 2
Fore
SplineSet
125 612.5 m 1
 125 800 l 1
 375 800 l 1
 375 612.5 l 1
 125 612.5 l 1
0 -75 m 1
 0 675 l 1
 187.5 675 l 1
 187.5 -75 l 1
 0 -75 l 1
125 -200 m 1
 125 -12.5 l 1
 375 -12.5 l 1
 375 -200 l 1
 125 -200 l 1
EndSplineSet
Validated: 524293
EndChar

StartChar: parenright
Encoding: 41 41 8
Width: 625
Flags: HW
LayerCount: 2
Fore
SplineSet
0 612.5 m 1
 0 800 l 1
 250 800 l 1
 250 612.5 l 1
 0 612.5 l 1
187.5 -75 m 1
 187.5 675 l 1
 375 675 l 1
 375 -75 l 1
 187.5 -75 l 1
0 -200 m 1
 0 -12.5 l 1
 250 -12.5 l 1
 250 -200 l 1
 0 -200 l 1
EndSplineSet
Validated: 524293
EndChar

StartChar: asterisk
Encoding: 42 42 9
Width: 1000
Flags: HW
LayerCount: 2
Fore
SplineSet
0 237.5 m 1
 0 362.5 l 1
 750 362.5 l 1
 750 237.5 l 1
 0 237.5 l 1
0 550 m 1
 0 675 l 1
 125 675 l 1
 125 550 l 1
 0 550 l 1
625 550 m 1
 625 675 l 1
 750 675 l 1
 750 550 l 1
 625 550 l 1
0 -75 m 1
 0 50 l 1
 125 50 l 1
 125 -75 l 1
 0 -75 l 1
625 -75 m 1
 625 50 l 1
 750 50 l 1
 750 -75 l 1
 625 -75 l 1
187.5 112.5 m 1
 187.5 487.5 l 1
 562.5 487.5 l 1
 562.5 112.5 l 1
 187.5 112.5 l 1
93.75 456.25 m 1
 93.75 581.25 l 1
 218.75 581.25 l 1
 218.75 456.25 l 1
 93.75 456.25 l 1
531.25 456.25 m 1
 531.25 581.25 l 1
 656.25 581.25 l 1
 656.25 456.25 l 1
 531.25 456.25 l 1
93.75 18.75 m 1
 93.75 143.75 l 1
 218.75 143.75 l 1
 218.75 18.75 l 1
 93.75 18.75 l 1
531.25 18.75 m 1
 531.25 143.75 l 1
 656.25 143.75 l 1
 656.25 18.75 l 1
 531.25 18.75 l 1
312.5 -75 m 1
 312.5 675 l 1
 437.5 675 l 1
 437.5 -75 l 1
 312.5 -75 l 1
EndSplineSet
Validated: 524293
EndChar

StartChar: plus
Encoding: 43 43 10
Width: 1000
Flags: HW
LayerCount: 2
Fore
SplineSet
0 206.25 m 1
 0 393.75 l 1
 750 393.75 l 1
 750 206.25 l 1
 0 206.25 l 1
281.25 -75 m 1
 281.25 675 l 1
 468.75 675 l 1
 468.75 -75 l 1
 281.25 -75 l 1
EndSplineSet
Validated: 524293
EndChar

StartChar: comma
Encoding: 44 44 11
Width: 500
Flags: HW
LayerCount: 2
Fore
SplineSet
0 -75 m 5
 0 50 l 5
 250 50 l 5
 250 -75 l 5
 0 -75 l 5
125 -200 m 5
 125 50 l 5
 250 50 l 5
 250 -200 l 5
 125 -200 l 5
EndSplineSet
Validated: 5
EndChar

StartChar: hyphen
Encoding: 45 45 12
Width: 1000
Flags: HW
LayerCount: 2
Fore
SplineSet
0 206.25 m 1
 0 393.75 l 1
 750 393.75 l 1
 750 206.25 l 1
 0 206.25 l 1
EndSplineSet
Validated: 524289
EndChar

StartChar: period
Encoding: 46 46 13
Width: 500
Flags: HW
LayerCount: 2
Fore
SplineSet
0 -200 m 1
 0 50 l 1
 250 50 l 1
 250 -200 l 1
 0 -200 l 1
EndSplineSet
Validated: 1
EndChar

StartChar: slash
Encoding: 47 47 14
Width: 812
Flags: HW
LayerCount: 2
Fore
SplineSet
375 487.5 m 1
 375 675 l 1
 562.5 675 l 1
 562.5 487.5 l 1
 375 487.5 l 1
0 -75 m 1
 0 112.5 l 1
 187.5 112.5 l 1
 187.5 -75 l 1
 0 -75 l 1
125 112.5 m 1
 125 300 l 1
 312.5 300 l 1
 312.5 112.5 l 1
 125 112.5 l 1
250 300 m 1
 250 487.5 l 1
 437.5 487.5 l 1
 437.5 300 l 1
 250 300 l 1
EndSplineSet
Validated: 524293
EndChar

StartChar: zero
Encoding: 48 48 15
Width: 1000
Flags: HW
LayerCount: 2
Fore
SplineSet
0 -200 m 1
 0 800 l 1
 250 800 l 1
 250 -200 l 1
 0 -200 l 1
0 -200 m 1
 0 50 l 1
 750 50 l 1
 750 -200 l 1
 0 -200 l 1
0 550 m 1
 0 800 l 1
 750 800 l 5
 750 550 l 1
 0 550 l 1
562.5 -200 m 1
 562.5 800 l 1
 750 800 l 1
 750 -200 l 1
 562.5 -200 l 1
0 206.25 m 1
 0 393.75 l 1
 437.5 393.75 l 1
 437.5 206.25 l 1
 0 206.25 l 1
EndSplineSet
Validated: 524293
EndChar

StartChar: one
Encoding: 49 49 16
Width: 812
Flags: HW
LayerCount: 2
Fore
SplineSet
0 550 m 1
 0 800 l 1
 406.25 800 l 1
 406.25 550 l 1
 0 550 l 1
156.25 -200 m 1
 156.25 800 l 1
 406.25 800 l 1
 406.25 -200 l 1
 156.25 -200 l 1
0 -200 m 1
 0 50 l 1
 562.5 50 l 1
 562.5 -200 l 1
 0 -200 l 1
EndSplineSet
Validated: 524293
EndChar

StartChar: two
Encoding: 50 50 17
Width: 1000
Flags: HW
LayerCount: 2
Fore
SplineSet
562.5 206.25 m 1
 562.5 800 l 1
 750 800 l 1
 750 206.25 l 1
 562.5 206.25 l 1
0 550 m 1
 0 800 l 1
 750 800 l 1
 750 550 l 1
 0 550 l 1
0 206.25 m 1
 0 393.75 l 1
 750 393.75 l 1
 750 206.25 l 1
 0 206.25 l 1
0 -200 m 1
 0 393.75 l 1
 250 393.75 l 1
 250 -200 l 1
 0 -200 l 1
0 -200 m 1
 0 50 l 1
 750 50 l 1
 750 -200 l 1
 0 -200 l 1
EndSplineSet
Validated: 524293
EndChar

StartChar: three
Encoding: 51 51 18
Width: 1000
Flags: HW
LayerCount: 2
Fore
SplineSet
562.5 -200 m 1
 562.5 800 l 1
 750 800 l 1
 750 -200 l 1
 562.5 -200 l 1
0 550 m 1
 0 800 l 1
 750 800 l 1
 750 550 l 1
 0 550 l 1
0 206.25 m 1
 0 393.75 l 1
 750 393.75 l 1
 750 206.25 l 1
 0 206.25 l 1
0 -200 m 1
 0 50 l 1
 750 50 l 1
 750 -200 l 1
 0 -200 l 1
EndSplineSet
Validated: 524293
EndChar

StartChar: four
Encoding: 52 52 19
Width: 1000
Flags: HW
LayerCount: 2
Fore
SplineSet
562.5 -200 m 1
 562.5 800 l 1
 750 800 l 1
 750 -200 l 1
 562.5 -200 l 1
0 206.25 m 1
 0 393.75 l 1
 750 393.75 l 1
 750 206.25 l 1
 0 206.25 l 1
0 206.25 m 1
 0 800 l 1
 250 800 l 1
 250 206.25 l 1
 0 206.25 l 1
EndSplineSet
Validated: 524293
EndChar

StartChar: five
Encoding: 53 53 20
Width: 1000
Flags: HW
LayerCount: 2
Fore
SplineSet
562.5 -200 m 1
 562.5 393.75 l 1
 750 393.75 l 1
 750 -200 l 1
 562.5 -200 l 1
0 550 m 1
 0 800 l 1
 750 800 l 1
 750 550 l 1
 0 550 l 1
0 206.25 m 1
 0 393.75 l 1
 750 393.75 l 1
 750 206.25 l 1
 0 206.25 l 1
0 206.25 m 1
 0 800 l 1
 250 800 l 1
 250 206.25 l 1
 0 206.25 l 1
0 -200 m 1
 0 50 l 1
 750 50 l 1
 750 -200 l 1
 0 -200 l 1
EndSplineSet
Validated: 524293
EndChar

StartChar: six
Encoding: 54 54 21
Width: 1000
Flags: HW
LayerCount: 2
Fore
SplineSet
562.5 -200 m 1
 562.5 393.75 l 1
 750 393.75 l 1
 750 -200 l 1
 562.5 -200 l 1
0 550 m 1
 0 800 l 1
 750 800 l 1
 750 550 l 1
 0 550 l 1
0 206.25 m 1
 0 393.75 l 1
 750 393.75 l 1
 750 206.25 l 1
 0 206.25 l 1
0 -200 m 1
 0 800 l 1
 250 800 l 1
 250 -200 l 1
 0 -200 l 1
0 -200 m 1
 0 50 l 1
 750 50 l 1
 750 -200 l 1
 0 -200 l 1
EndSplineSet
Validated: 524293
EndChar

StartChar: seven
Encoding: 55 55 22
Width: 1000
Flags: HW
LayerCount: 2
Fore
SplineSet
562.5 -200 m 1
 562.5 800 l 1
 750 800 l 1
 750 -200 l 1
 562.5 -200 l 1
0 550 m 1
 0 800 l 1
 750 800 l 1
 750 550 l 1
 0 550 l 1
EndSplineSet
Validated: 524293
EndChar

StartChar: eight
Encoding: 56 56 23
Width: 1000
Flags: HW
LayerCount: 2
Fore
SplineSet
562.5 -200 m 1
 562.5 800 l 1
 750 800 l 1
 750 -200 l 1
 562.5 -200 l 1
0 550 m 1
 0 800 l 1
 750 800 l 1
 750 550 l 1
 0 550 l 1
0 206.25 m 1
 0 393.75 l 1
 750 393.75 l 1
 750 206.25 l 1
 0 206.25 l 1
0 -200 m 1
 0 800 l 1
 250 800 l 1
 250 -200 l 1
 0 -200 l 1
0 -200 m 1
 0 50 l 1
 750 50 l 1
 750 -200 l 1
 0 -200 l 1
EndSplineSet
Validated: 524293
EndChar

StartChar: nine
Encoding: 57 57 24
Width: 1000
Flags: HW
LayerCount: 2
Fore
SplineSet
562.5 -200 m 1
 562.5 800 l 1
 750 800 l 1
 750 -200 l 1
 562.5 -200 l 1
0 550 m 1
 0 800 l 1
 750 800 l 1
 750 550 l 1
 0 550 l 1
0 206.25 m 1
 0 393.75 l 1
 750 393.75 l 1
 750 206.25 l 1
 0 206.25 l 1
0 206.25 m 1
 0 800 l 1
 250 800 l 1
 250 206.25 l 1
 0 206.25 l 1
0 -200 m 1
 0 50 l 1
 750 50 l 1
 750 -200 l 1
 0 -200 l 1
EndSplineSet
Validated: 524293
EndChar

StartChar: colon
Encoding: 58 58 25
Width: 500
Flags: HW
LayerCount: 2
Fore
SplineSet
0 175 m 1
 0 425 l 1
 250 425 l 1
 250 175 l 1
 0 175 l 1
0 -200 m 1
 0 50 l 1
 250 50 l 1
 250 -200 l 1
 0 -200 l 1
EndSplineSet
Validated: 1
EndChar

StartChar: semicolon
Encoding: 59 59 26
Width: 500
Flags: HW
LayerCount: 2
Fore
SplineSet
0 175 m 1
 0 425 l 1
 250 425 l 1
 250 175 l 1
 0 175 l 1
0 -75 m 1
 0 50 l 1
 250 50 l 1
 250 -75 l 1
 0 -75 l 1
125 -200 m 1
 125 50 l 1
 250 50 l 1
 250 -200 l 1
 125 -200 l 1
EndSplineSet
Validated: 5
EndChar

StartChar: less
Encoding: 60 60 27
Width: 812
Flags: HW
LayerCount: 2
Fore
SplineSet
375 581.25 m 1
 375 768.75 l 1
 562.5 768.75 l 1
 562.5 581.25 l 1
 375 581.25 l 1
187.5 393.75 m 1
 187.5 581.25 l 1
 375 581.25 l 1
 375 393.75 l 1
 187.5 393.75 l 1
187.5 18.75 m 1
 187.5 206.25 l 1
 375 206.25 l 1
 375 18.75 l 1
 187.5 18.75 l 1
0 206.25 m 1
 0 393.75 l 1
 187.5 393.75 l 1
 187.5 206.25 l 1
 0 206.25 l 1
375 -168.75 m 1
 375 18.75 l 1
 562.5 18.75 l 1
 562.5 -168.75 l 1
 375 -168.75 l 1
EndSplineSet
Validated: 524293
EndChar

StartChar: equal
Encoding: 61 61 28
Width: 1000
Flags: HW
LayerCount: 2
Fore
SplineSet
0 362.5 m 1
 0 550 l 1
 750 550 l 1
 750 362.5 l 1
 0 362.5 l 1
0 50 m 1
 0 237.5 l 1
 750 237.5 l 1
 750 50 l 1
 0 50 l 1
EndSplineSet
Validated: 524289
EndChar

StartChar: greater
Encoding: 62 62 29
Width: 812
Flags: HW
LayerCount: 2
Fore
SplineSet
0 581.25 m 1
 0 768.75 l 1
 187.5 768.75 l 1
 187.5 581.25 l 1
 0 581.25 l 1
187.5 393.75 m 1
 187.5 581.25 l 1
 375 581.25 l 1
 375 393.75 l 1
 187.5 393.75 l 1
187.5 18.75 m 1
 187.5 206.25 l 1
 375 206.25 l 1
 375 18.75 l 1
 187.5 18.75 l 1
375 206.25 m 1
 375 393.75 l 1
 562.5 393.75 l 1
 562.5 206.25 l 1
 375 206.25 l 1
0 -168.75 m 1
 0 18.75 l 1
 187.5 18.75 l 1
 187.5 -168.75 l 1
 0 -168.75 l 1
EndSplineSet
Validated: 524293
EndChar

StartChar: question
Encoding: 63 63 30
Width: 875
Flags: HW
LayerCount: 2
Fore
SplineSet
375 206.25 m 1
 375 800 l 1
 625 800 l 1
 625 206.25 l 1
 375 206.25 l 1
0 550 m 1
 0 800 l 1
 625 800 l 1
 625 550 l 1
 0 550 l 1
125 206.25 m 1
 125 393.75 l 1
 625 393.75 l 1
 625 206.25 l 1
 125 206.25 l 1
125 112.5 m 1
 125 393.75 l 1
 375 393.75 l 1
 375 112.5 l 1
 125 112.5 l 1
125 -200 m 1
 125 -12.5 l 1
 375 -12.5 l 1
 375 -200 l 1
 125 -200 l 1
EndSplineSet
Validated: 524293
EndChar

StartChar: at
Encoding: 64 64 31
Width: 1000
Flags: HW
LayerCount: 2
Fore
SplineSet
0 -137.5 m 1
 0 737.5 l 1
 187.5 737.5 l 1
 187.5 -137.5 l 1
 0 -137.5 l 1
0 550 m 1
 0 737.5 l 1
 750 737.5 l 1
 750 550 l 1
 0 550 l 1
562.5 -137.5 m 1
 562.5 737.5 l 1
 750 737.5 l 1
 750 -137.5 l 1
 562.5 -137.5 l 1
0 -137.5 m 1
 0 50 l 1
 750 50 l 1
 750 -137.5 l 1
 0 -137.5 l 1
312.5 237.5 m 1
 312.5 362.5 l 1
 750 362.5 l 1
 750 237.5 l 1
 312.5 237.5 l 1
312.5 -137.5 m 1
 312.5 300 l 1
 437.5 300 l 1
 437.5 -137.5 l 1
 312.5 -137.5 l 1
EndSplineSet
Validated: 524293
EndChar

StartChar: A
Encoding: 65 65 32
Width: 1000
Flags: HW
LayerCount: 2
Fore
SplineSet
0 -200 m 1
 0 800 l 1
 250 800 l 1
 250 -200 l 1
 0 -200 l 1
0 550 m 1
 0 800 l 1
 750 800 l 1
 750 550 l 1
 0 550 l 1
500 -200 m 1
 500 800 l 1
 750 800 l 1
 750 -200 l 1
 500 -200 l 1
0 206.25 m 1
 0 393.75 l 1
 750 393.75 l 1
 750 206.25 l 1
 0 206.25 l 1
EndSplineSet
Validated: 524293
EndChar

StartChar: B
Encoding: 66 66 33
Width: 1000
Flags: HW
LayerCount: 2
Fore
SplineSet
0 -200 m 1
 0 800 l 1
 250 800 l 1
 250 -200 l 1
 0 -200 l 1
0 206.25 m 1
 0 393.75 l 1
 562.5 393.75 l 1
 562.5 206.25 l 1
 0 206.25 l 1
0 -200 m 1
 0 50 l 1
 750 50 l 1
 750 -200 l 1
 0 -200 l 1
0 550 m 1
 0 800 l 1
 750 800 l 1
 750 550 l 1
 0 550 l 1
562.5 393.75 m 1
 562.5 800 l 1
 750 800 l 1
 750 393.75 l 1
 562.5 393.75 l 1
562.5 -200 m 1
 562.5 206.25 l 1
 750 206.25 l 1
 750 -200 l 1
 562.5 -200 l 1
EndSplineSet
Validated: 524293
EndChar

StartChar: C
Encoding: 67 67 34
Width: 1000
Flags: HW
LayerCount: 2
Fore
SplineSet
0 -200 m 1
 0 800 l 1
 250 800 l 1
 250 -200 l 1
 0 -200 l 1
0 -200 m 1
 0 50 l 1
 750 50 l 1
 750 -200 l 1
 0 -200 l 1
0 550 m 1
 0 800 l 1
 750 800 l 1
 750 550 l 1
 0 550 l 1
EndSplineSet
Validated: 5
EndChar

StartChar: D
Encoding: 68 68 35
Width: 1000
Flags: HW
LayerCount: 2
Fore
SplineSet
0 -200 m 1
 0 800 l 1
 250 800 l 1
 250 -200 l 1
 0 -200 l 1
0 550 m 1
 0 800 l 1
 562.5 800 l 1
 562.5 550 l 1
 0 550 l 1
0 -200 m 1
 0 50 l 1
 562.5 50 l 1
 562.5 -200 l 1
 0 -200 l 1
562.5 50 m 1
 562.5 550 l 1
 750 550 l 1
 750 50 l 1
 562.5 50 l 1
EndSplineSet
Validated: 524293
EndChar

StartChar: E
Encoding: 69 69 36
Width: 1000
Flags: HW
LayerCount: 2
Fore
SplineSet
0 550 m 1
 0 800 l 1
 750 800 l 1
 750 550 l 1
 0 550 l 1
0 -200 m 1
 0 50 l 1
 750 50 l 1
 750 -200 l 1
 0 -200 l 1
0 206.25 m 1
 0 393.75 l 1
 750 393.75 l 1
 750 206.25 l 1
 0 206.25 l 1
0 -200 m 1
 0 800 l 1
 250 800 l 1
 250 -200 l 1
 0 -200 l 1
EndSplineSet
Validated: 524293
EndChar

StartChar: F
Encoding: 70 70 37
Width: 1000
Flags: HW
LayerCount: 2
Fore
SplineSet
0 550 m 1
 0 800 l 1
 750 800 l 1
 750 550 l 1
 0 550 l 1
0 -200 m 1
 0 800 l 1
 250 800 l 1
 250 -200 l 1
 0 -200 l 1
0 206.25 m 1
 0 393.75 l 1
 750 393.75 l 1
 750 206.25 l 1
 0 206.25 l 1
EndSplineSet
Validated: 524293
EndChar

StartChar: G
Encoding: 71 71 38
Width: 1000
Flags: HW
LayerCount: 2
Fore
SplineSet
0 -200 m 1
 0 800 l 1
 250 800 l 1
 250 -200 l 1
 0 -200 l 1
0 -200 m 1
 0 50 l 1
 750 50 l 1
 750 -200 l 1
 0 -200 l 1
0 550 m 1
 0 800 l 1
 750 800 l 1
 750 550 l 1
 0 550 l 1
562.5 -200 m 1
 562.5 393.75 l 1
 750 393.75 l 1
 750 -200 l 1
 562.5 -200 l 1
375 206.25 m 1
 375 393.75 l 1
 750 393.75 l 1
 750 206.25 l 1
 375 206.25 l 1
EndSplineSet
Validated: 524293
EndChar

StartChar: H
Encoding: 72 72 39
Width: 1000
Flags: HW
LayerCount: 2
Fore
SplineSet
0 -200 m 1
 0 800 l 1
 250 800 l 1
 250 -200 l 1
 0 -200 l 1
562.5 -200 m 1
 562.5 800 l 1
 750 800 l 1
 750 -200 l 1
 562.5 -200 l 1
0 237.5 m 1
 0 425 l 1
 750 425 l 1
 750 237.5 l 1
 0 237.5 l 1
EndSplineSet
Validated: 524293
EndChar

StartChar: I
Encoding: 73 73 40
Width: 812
Flags: HW
LayerCount: 2
Fore
SplineSet
0 550 m 1
 0 800 l 1
 562.5 800 l 1
 562.5 550 l 1
 0 550 l 1
156.25 -200 m 1
 156.25 800 l 1
 406.25 800 l 1
 406.25 -200 l 1
 156.25 -200 l 1
0 -200 m 1
 0 50 l 1
 562.5 50 l 1
 562.5 -200 l 1
 0 -200 l 1
EndSplineSet
Validated: 524293
EndChar

StartChar: J
Encoding: 74 74 41
Width: 875
Flags: HW
LayerCount: 2
Fore
SplineSet
62.5 550 m 1
 62.5 800 l 1
 625 800 l 1
 625 550 l 1
 62.5 550 l 1
281.25 -200 m 1
 281.25 800 l 1
 531.25 800 l 1
 531.25 -200 l 1
 281.25 -200 l 1
0 -200 m 1
 0 112.5 l 1
 187.5 112.5 l 1
 187.5 -200 l 1
 0 -200 l 1
0 -200 m 1
 0 50 l 1
 531.25 50 l 1
 531.25 -200 l 1
 0 -200 l 1
EndSplineSet
Validated: 524293
EndChar

StartChar: K
Encoding: 75 75 42
Width: 1000
Flags: HW
LayerCount: 2
Fore
SplineSet
0 -200 m 1
 0 800 l 1
 250 800 l 1
 250 -200 l 1
 0 -200 l 1
562.5 393.75 m 1
 562.5 800 l 1
 750 800 l 1
 750 393.75 l 1
 562.5 393.75 l 1
0 206.25 m 1
 0 393.75 l 1
 562.5 393.75 l 1
 562.5 206.25 l 1
 0 206.25 l 1
562.5 -200 m 1
 562.5 206.25 l 1
 750 206.25 l 1
 750 -200 l 1
 562.5 -200 l 1
EndSplineSet
Validated: 524293
EndChar

StartChar: L
Encoding: 76 76 43
Width: 1000
Flags: HW
LayerCount: 2
Fore
SplineSet
0 -200 m 1
 0 800 l 1
 250 800 l 1
 250 -200 l 1
 0 -200 l 1
0 -200 m 1
 0 50 l 1
 750 50 l 1
 750 -200 l 1
 0 -200 l 1
EndSplineSet
Validated: 5
EndChar

StartChar: M
Encoding: 77 77 44
Width: 1000
Flags: HW
LayerCount: 2
Fore
SplineSet
0 -200 m 1
 0 800 l 1
 250 800 l 1
 250 -200 l 1
 0 -200 l 1
375 -200 m 1
 375 800 l 1
 500 800 l 1
 500 -200 l 1
 375 -200 l 1
625 -200 m 1
 625 800 l 1
 750 800 l 1
 750 -200 l 1
 625 -200 l 1
0 550 m 1
 0 800 l 1
 750 800 l 1
 750 550 l 1
 0 550 l 1
EndSplineSet
Validated: 5
EndChar

StartChar: N
Encoding: 78 78 45
Width: 1000
Flags: HW
LayerCount: 2
Fore
SplineSet
0 -200 m 1
 0 800 l 1
 250 800 l 1
 250 -200 l 1
 0 -200 l 1
562.5 -200 m 1
 562.5 800 l 1
 750 800 l 1
 750 -200 l 1
 562.5 -200 l 1
0 550 m 1
 0 800 l 1
 312.5 800 l 1
 312.5 550 l 1
 0 550 l 1
500 -200 m 1
 500 50 l 1
 750 50 l 1
 750 -200 l 1
 500 -200 l 1
281.25 393.75 m 1
 281.25 581.25 l 1
 406.25 581.25 l 1
 406.25 393.75 l 1
 281.25 393.75 l 1
406.25 18.75 m 1
 406.25 206.25 l 1
 531.25 206.25 l 1
 531.25 18.75 l 1
 406.25 18.75 l 1
343.75 206.25 m 1
 343.75 393.75 l 1
 468.75 393.75 l 1
 468.75 206.25 l 1
 343.75 206.25 l 1
EndSplineSet
Validated: 524293
EndChar

StartChar: O
Encoding: 79 79 46
Width: 1000
Flags: HW
LayerCount: 2
Fore
SplineSet
0 -200 m 1
 0 800 l 1
 250 800 l 1
 250 -200 l 1
 0 -200 l 1
0 -200 m 1
 0 50 l 1
 750 50 l 1
 750 -200 l 1
 0 -200 l 1
0 550 m 1
 0 800 l 1
 750 800 l 1
 750 550 l 1
 0 550 l 1
562.5 -200 m 1
 562.5 800 l 1
 750 800 l 1
 750 -200 l 1
 562.5 -200 l 1
EndSplineSet
Validated: 524293
EndChar

StartChar: P
Encoding: 80 80 47
Width: 1000
Flags: HW
LayerCount: 2
Fore
SplineSet
0 -200 m 1
 0 800 l 1
 250 800 l 1
 250 -200 l 1
 0 -200 l 1
0 550 m 1
 0 800 l 1
 750 800 l 1
 750 550 l 1
 0 550 l 1
562.5 206.25 m 1
 562.5 800 l 1
 750 800 l 1
 750 206.25 l 1
 562.5 206.25 l 1
0 206.25 m 1
 0 393.75 l 1
 750 393.75 l 1
 750 206.25 l 1
 0 206.25 l 1
EndSplineSet
Validated: 524293
EndChar

StartChar: Q
Encoding: 81 81 48
Width: 1000
Flags: HW
LayerCount: 2
Fore
SplineSet
0 -200 m 1
 0 800 l 1
 250 800 l 1
 250 -200 l 1
 0 -200 l 1
0 -200 m 1
 0 50 l 1
 437.5 50 l 1
 437.5 -200 l 1
 0 -200 l 1
0 550 m 1
 0 800 l 1
 750 800 l 1
 750 550 l 1
 0 550 l 1
562.5 112.5 m 1
 562.5 800 l 1
 750 800 l 1
 750 112.5 l 1
 562.5 112.5 l 1
562.5 -200 m 1
 562.5 -12.5 l 1
 750 -12.5 l 1
 750 -200 l 1
 562.5 -200 l 1
406.25 -43.75 m 1
 406.25 143.75 l 1
 593.75 143.75 l 1
 593.75 -43.75 l 1
 406.25 -43.75 l 1
EndSplineSet
Validated: 524293
EndChar

StartChar: R
Encoding: 82 82 49
Width: 1000
Flags: HW
LayerCount: 2
Fore
SplineSet
0 -200 m 1
 0 800 l 1
 250 800 l 1
 250 -200 l 1
 0 -200 l 1
0 550 m 1
 0 800 l 1
 750 800 l 1
 750 550 l 1
 0 550 l 1
562.5 393.75 m 1
 562.5 800 l 1
 750 800 l 1
 750 393.75 l 1
 562.5 393.75 l 1
0 206.25 m 1
 0 393.75 l 1
 562.5 393.75 l 1
 562.5 206.25 l 1
 0 206.25 l 1
562.5 -200 m 1
 562.5 206.25 l 1
 750 206.25 l 1
 750 -200 l 1
 562.5 -200 l 1
EndSplineSet
Validated: 524293
EndChar

StartChar: S
Encoding: 83 83 50
Width: 1000
Flags: HW
LayerCount: 2
Fore
SplineSet
0 206.25 m 1
 0 800 l 1
 250 800 l 1
 250 206.25 l 1
 0 206.25 l 1
0 550 m 1
 0 800 l 1
 750 800 l 1
 750 550 l 1
 0 550 l 1
0 206.25 m 1
 0 393.75 l 1
 750 393.75 l 1
 750 206.25 l 1
 0 206.25 l 1
562.5 -200 m 1
 562.5 393.75 l 1
 750 393.75 l 1
 750 -200 l 1
 562.5 -200 l 1
0 -200 m 1
 0 50 l 1
 750 50 l 1
 750 -200 l 1
 0 -200 l 1
EndSplineSet
Validated: 524293
EndChar

StartChar: T
Encoding: 84 84 51
Width: 1000
Flags: HW
LayerCount: 2
Fore
SplineSet
0 550 m 1
 0 800 l 1
 750 800 l 1
 750 550 l 1
 0 550 l 1
250 -200 m 1
 250 800 l 1
 500 800 l 1
 500 -200 l 1
 250 -200 l 1
EndSplineSet
Validated: 5
EndChar

StartChar: U
Encoding: 85 85 52
Width: 1000
Flags: HW
LayerCount: 2
Fore
SplineSet
0 -200 m 1
 0 800 l 1
 250 800 l 1
 250 -200 l 1
 0 -200 l 1
0 -200 m 1
 0 50 l 1
 750 50 l 1
 750 -200 l 1
 0 -200 l 1
562.5 -200 m 1
 562.5 800 l 1
 750 800 l 1
 750 -200 l 1
 562.5 -200 l 1
EndSplineSet
Validated: 524293
EndChar

StartChar: V
Encoding: 86 86 53
Width: 1000
Flags: HW
LayerCount: 2
Fore
SplineSet
0 50 m 1
 0 800 l 1
 250 800 l 1
 250 50 l 1
 0 50 l 1
250 -200 m 1
 250 50 l 1
 562.5 50 l 1
 562.5 -200 l 1
 250 -200 l 1
562.5 50 m 1
 562.5 800 l 1
 750 800 l 1
 750 50 l 1
 562.5 50 l 1
EndSplineSet
Validated: 524293
EndChar

StartChar: W
Encoding: 87 87 54
Width: 1000
Flags: HW
LayerCount: 2
Fore
SplineSet
0 -200 m 1
 0 800 l 1
 250 800 l 1
 250 -200 l 1
 0 -200 l 1
375 -200 m 1
 375 800 l 1
 500 800 l 1
 500 -200 l 1
 375 -200 l 1
625 -200 m 1
 625 800 l 1
 750 800 l 1
 750 -200 l 1
 625 -200 l 1
0 -200 m 1
 0 50 l 1
 750 50 l 1
 750 -200 l 1
 0 -200 l 1
EndSplineSet
Validated: 5
EndChar

StartChar: X
Encoding: 88 88 55
Width: 1000
Flags: HW
LayerCount: 2
Fore
SplineSet
0 -200 m 1
 0 50 l 1
 187.5 50 l 1
 187.5 -200 l 1
 0 -200 l 1
0 550 m 1
 0 800 l 1
 187.5 800 l 1
 187.5 550 l 1
 0 550 l 1
125 425 m 1
 125 612.5 l 1
 312.5 612.5 l 1
 312.5 425 l 1
 125 425 l 1
125 50 m 1
 125 237.5 l 1
 312.5 237.5 l 1
 312.5 50 l 1
 125 50 l 1
281.25 206.25 m 1
 281.25 456.25 l 1
 468.75 456.25 l 1
 468.75 206.25 l 1
 281.25 206.25 l 1
562.5 -200 m 1
 562.5 50 l 1
 750 50 l 1
 750 -200 l 1
 562.5 -200 l 1
562.5 550 m 1
 562.5 800 l 1
 750 800 l 1
 750 550 l 1
 562.5 550 l 1
437.5 425 m 1
 437.5 612.5 l 1
 625 612.5 l 1
 625 425 l 1
 437.5 425 l 1
437.5 50 m 1
 437.5 237.5 l 1
 625 237.5 l 1
 625 50 l 1
 437.5 50 l 1
EndSplineSet
Validated: 524293
EndChar

StartChar: Y
Encoding: 89 89 56
Width: 1000
Flags: HW
LayerCount: 2
Fore
SplineSet
0 393.75 m 1
 0 800 l 1
 250 800 l 1
 250 393.75 l 1
 0 393.75 l 1
250 -200 m 1
 250 393.75 l 1
 562.5 393.75 l 1
 562.5 -200 l 1
 250 -200 l 1
562.5 393.75 m 1
 562.5 800 l 1
 750 800 l 1
 750 393.75 l 1
 562.5 393.75 l 1
EndSplineSet
Validated: 524293
EndChar

StartChar: Z
Encoding: 90 90 57
Width: 1000
Flags: HW
LayerCount: 2
Fore
SplineSet
562.5 425 m 1
 562.5 800 l 1
 750 800 l 1
 750 425 l 1
 562.5 425 l 1
0 550 m 1
 0 800 l 1
 750 800 l 1
 750 550 l 1
 0 550 l 1
0 -200 m 1
 0 50 l 1
 750 50 l 1
 750 -200 l 1
 0 -200 l 1
0 -200 m 1
 0 175 l 1
 187.5 175 l 1
 187.5 -200 l 1
 0 -200 l 1
125 112.5 m 1
 125 300 l 1
 312.5 300 l 1
 312.5 112.5 l 1
 125 112.5 l 1
250 206.25 m 1
 250 393.75 l 1
 437.5 393.75 l 1
 437.5 206.25 l 1
 250 206.25 l 1
406.25 300 m 1
 406.25 487.5 l 1
 593.75 487.5 l 1
 593.75 300 l 1
 406.25 300 l 1
EndSplineSet
Validated: 524293
EndChar

StartChar: bracketleft
Encoding: 91 91 58
Width: 625
Flags: HW
LayerCount: 2
Fore
SplineSet
0 550 m 5
 0 800 l 5
 375 800 l 5
 375 550 l 5
 0 550 l 5
0 -200 m 5
 0 800 l 5
 187.5 800 l 5
 187.5 -200 l 5
 0 -200 l 5
0 -200 m 5
 0 50 l 5
 375 50 l 5
 375 -200 l 5
 0 -200 l 5
EndSplineSet
Validated: 524293
EndChar

StartChar: backslash
Encoding: 92 92 59
Width: 812
Flags: HW
LayerCount: 2
Fore
SplineSet
0 487.5 m 1
 0 675 l 1
 187.5 675 l 1
 187.5 487.5 l 1
 0 487.5 l 1
375 -75 m 1
 375 112.5 l 1
 562.5 112.5 l 1
 562.5 -75 l 1
 375 -75 l 1
250 112.5 m 1
 250 300 l 1
 437.5 300 l 1
 437.5 112.5 l 1
 250 112.5 l 1
125 300 m 1
 125 487.5 l 1
 312.5 487.5 l 1
 312.5 300 l 1
 125 300 l 1
EndSplineSet
Validated: 524293
EndChar

StartChar: bracketright
Encoding: 93 93 60
Width: 625
Flags: HW
LayerCount: 2
Fore
SplineSet
0 550 m 1
 0 800 l 1
 375 800 l 1
 375 550 l 1
 0 550 l 1
187.5 -200 m 1
 187.5 800 l 1
 375 800 l 1
 375 -200 l 1
 187.5 -200 l 1
0 -200 m 1
 0 50 l 1
 375 50 l 1
 375 -200 l 1
 0 -200 l 1
EndSplineSet
Validated: 524293
EndChar

StartChar: asciicircum
Encoding: 94 94 61
Width: 856
Flags: HW
LayerCount: 2
Fore
SplineSet
121.211914062 557.576171875 m 1
 121.211914062 678.788085938 l 1
 242.423828125 678.788085938 l 1
 242.423828125 557.576171875 l 1
 121.211914062 557.576171875 l 1
0 436.36328125 m 1
 0 557.576171875 l 1
 121.211914062 557.576171875 l 1
 121.211914062 436.36328125 l 1
 0 436.36328125 l 1
242.423828125 678.788085938 m 1
 242.423828125 800 l 1
 363.63671875 800 l 1
 363.63671875 678.788085938 l 1
 242.423828125 678.788085938 l 1
363.63671875 557.576171875 m 1
 363.63671875 678.788085938 l 1
 484.848632812 678.788085938 l 1
 484.848632812 557.576171875 l 1
 363.63671875 557.576171875 l 1
484.848632812 436.36328125 m 1
 484.848632812 557.576171875 l 1
 606.060546875 557.576171875 l 1
 606.060546875 436.36328125 l 1
 484.848632812 436.36328125 l 1
EndSplineSet
Validated: 524293
EndChar

StartChar: underscore
Encoding: 95 95 62
Width: 1000
Flags: HW
LayerCount: 2
Fore
SplineSet
0 -200 m 1
 0 -12.5 l 1
 750 -12.5 l 1
 750 -200 l 1
 0 -200 l 1
EndSplineSet
Validated: 524289
EndChar

StartChar: grave
Encoding: 96 96 63
Width: 492
Flags: HW
LayerCount: 2
Fore
SplineSet
0 678.788085938 m 1
 0 800 l 1
 121.211914062 800 l 1
 121.211914062 678.788085938 l 1
 0 678.788085938 l 1
121.211914062 557.576171875 m 1
 121.211914062 678.788085938 l 1
 242.423828125 678.788085938 l 1
 242.423828125 557.576171875 l 1
 121.211914062 557.576171875 l 1
EndSplineSet
Validated: 524293
EndChar

StartChar: a
Encoding: 97 97 64
Width: 1000
Flags: HW
LayerCount: 2
Fore
SplineSet
437.5 -200 m 1
 437.5 550 l 1
 687.5 550 l 1
 687.5 -200 l 1
 437.5 -200 l 1
0 300 m 1
 0 550 l 1
 687.5 550 l 1
 687.5 300 l 1
 0 300 l 1
0 -200 m 1
 0 550 l 1
 250 550 l 1
 250 -200 l 1
 0 -200 l 1
0 -200 m 1
 0 50 l 1
 750 50 l 1
 750 -200 l 1
 0 -200 l 1
EndSplineSet
Validated: 524293
EndChar

StartChar: b
Encoding: 98 98 65
Width: 1000
Flags: HW
LayerCount: 2
Fore
SplineSet
0 -200 m 1
 0 800 l 1
 250 800 l 1
 250 -200 l 1
 0 -200 l 1
0 -200 m 1
 0 50 l 1
 750 50 l 1
 750 -200 l 1
 0 -200 l 1
500 -200 m 1
 500 550 l 1
 750 550 l 1
 750 -200 l 1
 500 -200 l 1
0 300 m 1
 0 550 l 1
 750 550 l 1
 750 300 l 1
 0 300 l 1
EndSplineSet
Validated: 5
EndChar

StartChar: c
Encoding: 99 99 66
Width: 1000
Flags: HW
LayerCount: 2
Fore
SplineSet
0 300 m 1
 0 550 l 1
 750 550 l 1
 750 300 l 1
 0 300 l 1
0 -200 m 1
 0 550 l 1
 250 550 l 1
 250 -200 l 1
 0 -200 l 1
0 -200 m 1
 0 50 l 1
 750 50 l 1
 750 -200 l 1
 0 -200 l 1
EndSplineSet
Validated: 5
EndChar

StartChar: d
Encoding: 100 100 67
Width: 1000
Flags: HW
LayerCount: 2
Fore
SplineSet
0 -200 m 1
 0 550 l 1
 250 550 l 1
 250 -200 l 1
 0 -200 l 1
0 -200 m 1
 0 50 l 1
 750 50 l 1
 750 -200 l 1
 0 -200 l 1
500 -200 m 1
 500 800 l 1
 750 800 l 1
 750 -200 l 1
 500 -200 l 1
0 300 m 1
 0 550 l 1
 750 550 l 1
 750 300 l 1
 0 300 l 1
EndSplineSet
Validated: 5
EndChar

StartChar: e
Encoding: 101 101 68
Width: 1000
Flags: HW
LayerCount: 2
Fore
SplineSet
0 362.5 m 1
 0 550 l 1
 750 550 l 1
 750 362.5 l 1
 0 362.5 l 1
0 -200 m 1
 0 550 l 1
 250 550 l 1
 250 -200 l 1
 0 -200 l 1
0 -200 m 1
 0 -12.5 l 1
 750 -12.5 l 1
 750 -200 l 1
 0 -200 l 1
0 112.5 m 1
 0 237.5 l 1
 750 237.5 l 1
 750 112.5 l 1
 0 112.5 l 1
593.75 112.5 m 1
 593.75 550 l 1
 750 550 l 1
 750 112.5 l 1
 593.75 112.5 l 1
EndSplineSet
Validated: 524293
EndChar

StartChar: f
Encoding: 102 102 69
Width: 1000
Flags: HW
LayerCount: 2
Fore
SplineSet
62.5 362.5 m 1
 62.5 550 l 1
 750 550 l 1
 750 362.5 l 1
 62.5 362.5 l 1
0 -200 m 1
 0 550 l 1
 250 550 l 1
 250 -200 l 1
 0 -200 l 1
0 112.5 m 1
 0 237.5 l 1
 750 237.5 l 1
 750 112.5 l 1
 0 112.5 l 1
EndSplineSet
Validated: 524293
EndChar

StartChar: g
Encoding: 103 103 70
Width: 1000
Flags: HW
LayerCount: 2
Fore
SplineSet
0 362.5 m 1
 0 550 l 1
 750 550 l 1
 750 362.5 l 1
 0 362.5 l 1
0 112.5 m 1
 0 550 l 1
 250 550 l 1
 250 112.5 l 1
 0 112.5 l 1
0 -200 m 1
 0 -12.5 l 1
 750 -12.5 l 1
 750 -200 l 1
 0 -200 l 1
0 112.5 m 1
 0 237.5 l 1
 750 237.5 l 1
 750 112.5 l 1
 0 112.5 l 1
593.75 -200 m 1
 593.75 550 l 1
 750 550 l 1
 750 -200 l 1
 593.75 -200 l 1
EndSplineSet
Validated: 524293
EndChar

StartChar: h
Encoding: 104 104 71
Width: 1000
Flags: HW
LayerCount: 2
Fore
SplineSet
0 -200 m 1
 0 550 l 1
 250 550 l 1
 250 -200 l 1
 0 -200 l 1
0 112.5 m 1
 0 237.5 l 1
 750 237.5 l 1
 750 112.5 l 1
 0 112.5 l 1
500 -200 m 1
 500 237.5 l 1
 750 237.5 l 1
 750 -200 l 1
 500 -200 l 1
EndSplineSet
Validated: 524293
EndChar

StartChar: i
Encoding: 105 105 72
Width: 500
Flags: HW
LayerCount: 2
Fore
SplineSet
0 300 m 1
 0 550 l 1
 250 550 l 1
 250 300 l 1
 0 300 l 1
0 -200 m 1
 0 175 l 1
 250 175 l 1
 250 -200 l 1
 0 -200 l 1
EndSplineSet
Validated: 1
EndChar

StartChar: j
Encoding: 106 106 73
Width: 750
Flags: HW
LayerCount: 2
Fore
SplineSet
250 300 m 1
 250 550 l 1
 500 550 l 1
 500 300 l 1
 250 300 l 1
0 -200 m 1
 0 -12.5 l 1
 500 -12.5 l 1
 500 -200 l 1
 0 -200 l 1
250 -200 m 1
 250 175 l 1
 500 175 l 1
 500 -200 l 1
 250 -200 l 1
EndSplineSet
Validated: 524293
EndChar

StartChar: k
Encoding: 107 107 74
Width: 1000
Flags: HW
LayerCount: 2
Fore
SplineSet
0 -200 m 1
 0 550 l 1
 250 550 l 1
 250 -200 l 1
 0 -200 l 1
0 50 m 1
 0 300 l 1
 500 300 l 1
 500 50 l 1
 0 50 l 1
500 300 m 1
 500 550 l 1
 750 550 l 1
 750 300 l 1
 500 300 l 1
500 -200 m 1
 500 50 l 1
 750 50 l 1
 750 -200 l 1
 500 -200 l 1
EndSplineSet
Validated: 5
EndChar

StartChar: l
Encoding: 108 108 75
Width: 500
Flags: HW
LayerCount: 2
Fore
SplineSet
0 -200 m 1
 0 550 l 1
 250 550 l 1
 250 -200 l 1
 0 -200 l 1
EndSplineSet
Validated: 1
EndChar

StartChar: m
Encoding: 109 109 76
Width: 1000
Flags: HW
LayerCount: 2
Fore
SplineSet
0 -200 m 1
 0 550 l 1
 250 550 l 1
 250 -200 l 1
 0 -200 l 1
375 -200 m 1
 375 550 l 1
 500 550 l 1
 500 -200 l 1
 375 -200 l 1
625 -200 m 1
 625 550 l 1
 750 550 l 1
 750 -200 l 1
 625 -200 l 1
0 300 m 1
 0 550 l 1
 750 550 l 1
 750 300 l 1
 0 300 l 1
EndSplineSet
Validated: 5
EndChar

StartChar: n
Encoding: 110 110 77
Width: 1000
Flags: HW
LayerCount: 2
Fore
SplineSet
0 -200 m 1
 0 550 l 1
 250 550 l 1
 250 -200 l 1
 0 -200 l 1
500 -200 m 1
 500 550 l 1
 750 550 l 1
 750 -200 l 1
 500 -200 l 1
0 300 m 1
 0 550 l 1
 750 550 l 1
 750 300 l 1
 0 300 l 1
EndSplineSet
Validated: 5
EndChar

StartChar: o
Encoding: 111 111 78
Width: 1000
Flags: HW
LayerCount: 2
Fore
SplineSet
0 -200 m 1
 0 550 l 1
 250 550 l 1
 250 -200 l 1
 0 -200 l 1
0 -200 m 1
 0 50 l 1
 750 50 l 1
 750 -200 l 1
 0 -200 l 1
0 300 m 1
 0 550 l 1
 750 550 l 1
 750 300 l 1
 0 300 l 1
500 -200 m 1
 500 550 l 1
 750 550 l 1
 750 -200 l 1
 500 -200 l 1
EndSplineSet
Validated: 5
EndChar

StartChar: p
Encoding: 112 112 79
Width: 1000
Flags: HW
LayerCount: 2
Fore
SplineSet
0 362.5 m 1
 0 550 l 1
 750 550 l 1
 750 362.5 l 1
 0 362.5 l 1
0 -200 m 1
 0 550 l 1
 250 550 l 1
 250 -200 l 1
 0 -200 l 1
0 50 m 1
 0 237.5 l 1
 750 237.5 l 1
 750 50 l 1
 0 50 l 1
500 50 m 1
 500 550 l 1
 750 550 l 1
 750 50 l 1
 500 50 l 1
EndSplineSet
Validated: 524293
EndChar

StartChar: q
Encoding: 113 113 80
Width: 1000
Flags: HW
LayerCount: 2
Fore
SplineSet
0 362.5 m 1
 0 550 l 1
 750 550 l 1
 750 362.5 l 1
 0 362.5 l 1
500 -200 m 1
 500 550 l 1
 750 550 l 1
 750 -200 l 1
 500 -200 l 1
0 50 m 1
 0 237.5 l 1
 750 237.5 l 1
 750 50 l 1
 0 50 l 1
0 50 m 1
 0 550 l 1
 250 550 l 1
 250 50 l 1
 0 50 l 1
EndSplineSet
Validated: 524293
EndChar

StartChar: r
Encoding: 114 114 81
Width: 1000
Flags: HW
LayerCount: 2
Fore
SplineSet
0 -200 m 1
 0 550 l 1
 250 550 l 1
 250 -200 l 1
 0 -200 l 1
0 331.25 m 1
 0 550 l 1
 750 550 l 1
 750 331.25 l 1
 0 331.25 l 1
EndSplineSet
Validated: 524293
EndChar

StartChar: s
Encoding: 115 115 82
Width: 1000
Flags: HW
LayerCount: 2
Fore
SplineSet
0 362.5 m 1
 0 550 l 1
 750 550 l 1
 750 362.5 l 1
 0 362.5 l 1
500 -200 m 1
 500 237.5 l 1
 750 237.5 l 1
 750 -200 l 1
 500 -200 l 1
0 -200 m 1
 0 -12.5 l 1
 750 -12.5 l 1
 750 -200 l 1
 0 -200 l 1
0 112.5 m 1
 0 237.5 l 1
 750 237.5 l 1
 750 112.5 l 1
 0 112.5 l 1
0 112.5 m 1
 0 550 l 1
 250 550 l 1
 250 112.5 l 1
 0 112.5 l 1
EndSplineSet
Validated: 524293
EndChar

StartChar: t
Encoding: 116 116 83
Width: 1000
Flags: HW
LayerCount: 2
Fore
SplineSet
0 300 m 1
 0 550 l 1
 750 550 l 1
 750 300 l 1
 0 300 l 1
250 -200 m 1
 250 550 l 1
 500 550 l 1
 500 -200 l 1
 250 -200 l 1
EndSplineSet
Validated: 5
EndChar

StartChar: u
Encoding: 117 117 84
Width: 1000
Flags: HW
LayerCount: 2
Fore
SplineSet
0 -200 m 1
 0 550 l 1
 250 550 l 1
 250 -200 l 1
 0 -200 l 1
500 -200 m 1
 500 550 l 1
 750 550 l 1
 750 -200 l 1
 500 -200 l 1
0 -200 m 1
 0 50 l 1
 750 50 l 1
 750 -200 l 1
 0 -200 l 1
EndSplineSet
Validated: 5
EndChar

StartChar: v
Encoding: 118 118 85
Width: 1000
Flags: HW
LayerCount: 2
Fore
SplineSet
0 50 m 1
 0 550 l 1
 250 550 l 1
 250 50 l 1
 0 50 l 1
250 -200 m 1
 250 50 l 1
 500 50 l 1
 500 -200 l 1
 250 -200 l 1
500 50 m 1
 500 550 l 1
 750 550 l 1
 750 50 l 1
 500 50 l 1
EndSplineSet
Validated: 5
EndChar

StartChar: w
Encoding: 119 119 86
Width: 1000
Flags: HW
LayerCount: 2
Fore
SplineSet
0 -200 m 1
 0 550 l 1
 250 550 l 1
 250 -200 l 1
 0 -200 l 1
375 -200 m 1
 375 550 l 1
 500 550 l 1
 500 -200 l 1
 375 -200 l 1
625 -200 m 1
 625 550 l 1
 750 550 l 1
 750 -200 l 1
 625 -200 l 1
0 -200 m 1
 0 50 l 1
 750 50 l 1
 750 -200 l 1
 0 -200 l 1
EndSplineSet
Validated: 5
EndChar

StartChar: x
Encoding: 120 120 87
Width: 1000
Flags: HW
LayerCount: 2
Fore
SplineSet
0 300 m 1
 0 550 l 1
 250 550 l 1
 250 300 l 1
 0 300 l 1
500 -200 m 1
 500 50 l 1
 750 50 l 1
 750 -200 l 1
 500 -200 l 1
250 50 m 1
 250 300 l 1
 500 300 l 1
 500 50 l 1
 250 50 l 1
0 -200 m 1
 0 50 l 1
 250 50 l 1
 250 -200 l 1
 0 -200 l 1
500 300 m 1
 500 550 l 1
 750 550 l 1
 750 300 l 1
 500 300 l 1
EndSplineSet
Validated: 5
EndChar

StartChar: y
Encoding: 121 121 88
Width: 1000
Flags: HW
LayerCount: 2
Fore
SplineSet
0 300 m 1
 0 550 l 1
 250 550 l 1
 250 300 l 1
 0 300 l 1
500 300 m 1
 500 550 l 1
 750 550 l 1
 750 300 l 1
 500 300 l 1
250 -200 m 1
 250 300 l 1
 500 300 l 1
 500 -200 l 1
 250 -200 l 1
EndSplineSet
Validated: 5
EndChar

StartChar: z
Encoding: 122 122 89
Width: 1000
Flags: HW
LayerCount: 2
Fore
SplineSet
0 300 m 1
 0 550 l 1
 750 550 l 1
 750 300 l 1
 0 300 l 1
0 -200 m 1
 0 50 l 1
 750 50 l 1
 750 -200 l 1
 0 -200 l 1
500 175 m 1
 500 550 l 1
 750 550 l 1
 750 175 l 1
 500 175 l 1
250 112.5 m 1
 250 237.5 l 1
 500 237.5 l 1
 500 112.5 l 1
 250 112.5 l 1
0 -200 m 1
 0 175 l 1
 250 175 l 1
 250 -200 l 1
 0 -200 l 1
EndSplineSet
Validated: 524293
EndChar

StartChar: braceleft
Encoding: 123 123 90
Width: 750
Flags: HW
LayerCount: 2
Fore
SplineSet
250 612.5 m 1
 250 800 l 1
 500 800 l 1
 500 612.5 l 1
 250 612.5 l 1
125 393.75 m 1
 125 675 l 1
 312.5 675 l 1
 312.5 393.75 l 1
 125 393.75 l 1
250 -200 m 1
 250 -12.5 l 1
 500 -12.5 l 1
 500 -200 l 1
 250 -200 l 1
0 206.25 m 1
 0 393.75 l 1
 187.5 393.75 l 1
 187.5 206.25 l 1
 0 206.25 l 1
125 -75 m 1
 125 206.25 l 1
 312.5 206.25 l 1
 312.5 -75 l 1
 125 -75 l 1
EndSplineSet
Validated: 524293
EndChar

StartChar: bar
Encoding: 124 124 91
Width: 500
Flags: HW
LayerCount: 2
Fore
SplineSet
0 -200 m 1
 0 800 l 1
 250 800 l 1
 250 -200 l 1
 0 -200 l 1
EndSplineSet
Validated: 1
EndChar

StartChar: braceright
Encoding: 125 125 92
Width: 750
Flags: HW
LayerCount: 2
Fore
SplineSet
0 612.5 m 1
 0 800 l 1
 250 800 l 1
 250 612.5 l 1
 0 612.5 l 1
187.5 393.75 m 1
 187.5 675 l 1
 375 675 l 1
 375 393.75 l 1
 187.5 393.75 l 1
0 -200 m 1
 0 -12.5 l 1
 250 -12.5 l 1
 250 -200 l 1
 0 -200 l 1
312.5 206.25 m 1
 312.5 393.75 l 1
 500 393.75 l 1
 500 206.25 l 1
 312.5 206.25 l 1
187.5 -75 m 1
 187.5 206.25 l 1
 375 206.25 l 1
 375 -75 l 1
 187.5 -75 l 1
EndSplineSet
Validated: 524293
EndChar

StartChar: asciitilde
Encoding: 126 126 93
Width: 1000
Flags: HW
LayerCount: 2
Fore
SplineSet
187.5 300 m 1
 187.5 487.5 l 1
 375 487.5 l 1
 375 300 l 1
 187.5 300 l 1
0 112.5 m 1
 0 300 l 1
 187.5 300 l 1
 187.5 112.5 l 1
 0 112.5 l 1
562.5 300 m 1
 562.5 487.5 l 1
 750 487.5 l 1
 750 300 l 1
 562.5 300 l 1
375 112.5 m 1
 375 300 l 1
 562.5 300 l 1
 562.5 112.5 l 1
 375 112.5 l 1
EndSplineSet
Validated: 524293
EndChar

